# xmcd CD database file
#
# Track frame offsets:
#	150
#	30367
#	49675
#	81355
#	102510
#	131482
#	156195
#	172050
#	197095
#	214765
#	236150
#	253645
#	274975
#	286792
#	323452
#
# Disc length: 4572 seconds
#
# Revision: 0
# Processed by: cddbd v1.5.1PL0 Copyright (c) Steve Scherf et al.
# Submitted via: CDex 1.51
#
DISCID=d411da0f
DTITLE=Bill Jennings and Jack McDuff - Legends of Acid Jazz: Glide On
DYEAR=1959
DGENRE=Jazz
TTITLE0=Enough Said
TTITLE1=Tough Gain
TTITLE2=Volare (Nel Blu, Delpinto di Blu)
TTITLE3=Dark Eyes
TTITLE4=It Could Happen to You
TTITLE5=Blue Jams
TTITLE6=Dig Uncle Will
TTITLE7=Glide On
TTITLE8=Alexandria, Virginia
TTITLE9=Billin' and Bluin'
TTITLE10=There Will Never Be Another You
TTITLE11=Azure-Te (Paris Blues)
TTITLE12=Fiddlin'
TTITLE13=Cole Slaw
TTITLE14=Hey Mrs. Jones
EXTD=YEAR: 1959
EXTT0=
EXTT1=
EXTT2=
EXTT3=
EXTT4=
EXTT5=
EXTT6=
EXTT7=
EXTT8=
EXTT9=
EXTT10=
EXTT11=
EXTT12=
EXTT13=
EXTT14=
PLAYORDER=
